<svg width="12" height="24" viewBox="0 0 12 24" fill="none" xmlns="http://www.w3.org/2000/svg">
<path d="M0.466355 12.763H3.03184V23.3246C3.03184 23.5331 3.2008 23.7021 3.40933 23.7021H7.7592C7.96772 23.7021 8.13668 23.5331 8.13668 23.3246V12.8127H11.0859C11.2777 12.8127 11.439 12.6688 11.4609 12.4783L11.9088 8.59006C11.9212 8.48308 11.8873 8.37594 11.8157 8.29569C11.744 8.21536 11.6415 8.16938 11.5339 8.16938H8.13683V5.73202C8.13683 4.99728 8.53244 4.62469 9.31278 4.62469C9.42399 4.62469 11.5339 4.62469 11.5339 4.62469C11.7424 4.62469 11.9114 4.45566 11.9114 4.24721V0.678133C11.9114 0.469609 11.7424 0.300645 11.5339 0.300645H8.47287C8.45128 0.299588 8.40334 0.297852 8.33267 0.297852C7.80155 0.297852 5.95541 0.402114 4.4971 1.74371C2.8813 3.2304 3.1059 5.01049 3.15958 5.31912V8.16931H0.466355C0.257831 8.16931 0.0888672 8.33827 0.0888672 8.5468V12.3854C0.0888672 12.5939 0.257831 12.763 0.466355 12.763Z" fill="#727272"/>
</svg>
