<svg width="44" height="44" viewBox="0 0 44 44" fill="none" xmlns="http://www.w3.org/2000/svg">
<path d="M20.5256 28.1226C18.2032 27.8804 16.1092 27.3084 14.3164 25.9062C14.094 25.7318 13.8643 25.5636 13.6613 25.3688C12.8766 24.6151 12.7975 23.752 13.4185 22.8625C13.9496 22.1013 14.8413 21.8977 15.7682 22.3348C15.9476 22.4195 16.1186 22.5252 16.2824 22.6388C19.6236 24.9345 24.2135 24.9979 27.5672 22.742C27.8995 22.4872 28.2546 22.2795 28.6663 22.1735C29.4667 21.968 30.2131 22.262 30.6426 22.9623C31.1333 23.762 31.127 24.5426 30.5224 25.1636C29.595 26.1155 28.4796 26.8042 27.2403 27.2848C26.0684 27.7392 24.7848 27.9679 23.5144 28.1197C23.7061 28.3284 23.7965 28.431 23.9164 28.5515C25.6414 30.2847 27.3739 32.0106 29.0933 33.7491C29.6791 34.3415 29.8014 35.076 29.4789 35.765C29.1262 36.518 28.3368 37.0134 27.5628 36.9604C27.0724 36.9265 26.6899 36.6824 26.3501 36.3401C25.0484 35.0302 23.7221 33.7444 22.4467 32.4097C22.0756 32.0216 21.897 32.095 21.5695 32.432C20.2599 33.7802 18.9289 35.1077 17.5901 36.4276C16.989 37.0203 16.2736 37.127 15.5765 36.7885C14.8354 36.4292 14.3638 35.6727 14.4002 34.9125C14.4253 34.3983 14.6782 34.0055 15.0312 33.6531C16.7383 31.9485 18.4407 30.2395 20.1438 28.532C20.2564 28.4184 20.3615 28.298 20.5256 28.1226Z" fill="#727272"/>
<path d="M21.9402 22.1847C17.7971 22.1706 14.3998 18.736 14.424 14.5863C14.4478 10.3907 17.8473 7.00972 22.0312 7.02133C26.2236 7.03263 29.5886 10.4623 29.5676 14.7014C29.5463 18.8426 26.1254 22.1992 21.9402 22.1847ZM25.7056 14.5963C25.6984 12.5359 24.0575 10.8956 22.0011 10.8937C19.9275 10.8915 18.2718 12.5616 18.2878 14.6408C18.3032 16.6934 19.9583 18.3221 22.0203 18.3146C24.076 18.3074 25.7125 16.6564 25.7056 14.5963Z" fill="#727272"/>
</svg>
