<svg width="28" height="16" viewBox="0 0 28 16" fill="none" xmlns="http://www.w3.org/2000/svg">
<path d="M26.9522 1.12029C27.1419 0.498514 26.9522 0.0425415 26.0553 0.0425415H23.0842C22.3282 0.0425415 21.9827 0.437005 21.793 0.870245C21.793 0.870245 20.2824 4.50599 18.1417 6.8634C17.4507 7.54937 17.1351 7.76599 16.7584 7.76599C16.5701 7.76599 16.2964 7.54937 16.2964 6.92759V1.12029C16.2964 0.374158 16.0783 0.0425415 15.4483 0.0425415H10.7795C10.308 0.0425415 10.0235 0.387529 10.0235 0.716471C10.0235 1.42249 11.0938 1.58563 11.2036 3.57532V7.89168C11.2036 8.83705 11.0315 9.00955 10.6521 9.00955C9.64548 9.00955 7.19593 5.36043 5.74218 1.18314C5.45902 0.371483 5.17315 0.0438792 4.41444 0.0438792H1.44462C0.595137 0.0438792 0.425781 0.438342 0.425781 0.871582C0.425781 1.64981 1.43243 5.50083 5.11489 10.5941C7.56987 14.072 11.0261 15.9574 14.1747 15.9574C16.062 15.9574 16.2951 15.5389 16.2951 14.8168V12.188C16.2951 11.3509 16.4752 11.1824 17.0727 11.1824C17.5117 11.1824 18.2677 11.4017 20.0304 13.0772C22.0436 15.0642 22.3769 15.9561 23.5082 15.9561H26.478C27.3262 15.9561 27.7502 15.5376 27.5064 14.7112C27.2395 13.8888 26.2775 12.6921 25.0013 11.276C24.3076 10.4684 23.2711 9.59923 22.9555 9.16466C22.5151 8.60439 22.6425 8.35701 22.9555 7.85959C22.9568 7.86093 26.5756 2.83052 26.9522 1.12029Z" fill="#727272"/>
</svg>
